# xmcd CD database file
#
# Track frame offsets:
#	150
#	10302
#	33342
#	49460
#	67580
#	78302
#	90005
#	102237
#	120777
#	126915
#	144722
#	164185
#	183017
#	205850
#	218392
#	230552
#
# Disc length: 3213 seconds
#
# Revision: 3
# Processed by: cddbd v1.5.1PL0 Copyright (c) Steve Scherf et al.
# Submitted via: CDex 1.51
#
DISCID=c90c8b10
DTITLE=Merle Haggard - Okie From Muskogee
DYEAR=1997
DGENRE=Country
TTITLE0=Mama Tried 
TTITLE1=When Times Were Good 
TTITLE2=Today I Started Loving You Again 
TTITLE3=The Chill Factor 
TTITLE4=Ida Red 
TTITLE5=Okie From Muskogee 
TTITLE6=Bill Cheatum (Instrumental)
TTITLE7=Mama's Hungry Eyes
TTITLE8=The Fightin' Side Of Me 
TTITLE9=I Think I'll Just Stay Here And Drink
TTITLE10=Honky Tonk Night Time Man
TTITLE11=Footlights
TTITLE12=If I Could Only Fly 
TTITLE13=Kern River 
TTITLE14=I Knew The Moment I Lost You 
TTITLE15=This Mornin' This Evenin' So Soon 
EXTD=YEAR: 1997
EXTT0=
EXTT1=
EXTT2=
EXTT3=
EXTT4=
EXTT5=
EXTT6=
EXTT7=
EXTT8=
EXTT9=
EXTT10=
EXTT11=
EXTT12=
EXTT13=
EXTT14=
EXTT15=
PLAYORDER=
